inDegrees=no
num_controls=7
num_derivatives=13
num_iterations=122
num_multipliers=7
num_parameters=0
num_slacks=7
num_states=26
objective=5.464702
objective_accelerations=0.518981
objective_balance=0.012967
objective_effort=0.417921
objective_height=4.444772
objective_ligament=0.070060
solver_duration=1024.329663
status=Solve_Succeeded
success=true
DataType=double
version=3
OpenSimVersion=4.4-2022-07-23-0e9fedc
endheader
time	/jointset/ground_pelvis/pelvis_tilt/value	/jointset/ground_pelvis/pelvis_tx/value	/jointset/ground_pelvis/pelvis_ty/value	/jointset/hip_r/hip_flexion_r/value	/jointset/hip_r/hip_adduction_r/value	/jointset/hip_r/hip_rotation_r/value	/jointset/back/lumbar_extension/value	/jointset/patellofemoral_r/patellar_flexion_r/value	/jointset/knee_r/knee_flexion_r/value	/jointset/knee_r/knee_adduction_r/value	/jointset/knee_r/knee_rotation_r/value	/jointset/ankle_r/ankle_angle_r/value	/jointset/subtalar_r/subtalar_angle_r/value	/jointset/ground_pelvis/pelvis_tilt/speed	/jointset/ground_pelvis/pelvis_tx/speed	/jointset/ground_pelvis/pelvis_ty/speed	/jointset/hip_r/hip_flexion_r/speed	/jointset/hip_r/hip_adduction_r/speed	/jointset/hip_r/hip_rotation_r/speed	/jointset/back/lumbar_extension/speed	/jointset/patellofemoral_r/patellar_flexion_r/speed	/jointset/knee_r/knee_flexion_r/speed	/jointset/knee_r/knee_adduction_r/speed	/jointset/knee_r/knee_rotation_r/speed	/jointset/ankle_r/ankle_angle_r/speed	/jointset/subtalar_r/subtalar_angle_r/speed	/forceset/tau_hip_flexion_r	/forceset/tau_hip_adduction_r	/forceset/tau_hip_rotation_r	/forceset/tau_knee_flexion_r	/forceset/tau_ankle_angle_r	/forceset/tau_subtalar_angle_r	/forceset/tau_lumbar_extension	lambda_cid13_p0	lambda_cid14_p0	lambda_cid14_p1	lambda_cid14_p2	lambda_cid14_p3	lambda_cid14_p4	lambda_cid14_p5	/jointset/ground_pelvis/pelvis_tilt/accel	/jointset/ground_pelvis/pelvis_tx/accel	/jointset/ground_pelvis/pelvis_ty/accel	/jointset/hip_r/hip_flexion_r/accel	/jointset/hip_r/hip_adduction_r/accel	/jointset/hip_r/hip_rotation_r/accel	/jointset/back/lumbar_extension/accel	/jointset/patellofemoral_r/patellar_flexion_r/accel	/jointset/knee_r/knee_flexion_r/accel	/jointset/knee_r/knee_adduction_r/accel	/jointset/knee_r/knee_rotation_r/accel	/jointset/ankle_r/ankle_angle_r/accel	/jointset/subtalar_r/subtalar_angle_r/accel	gamma_cid13_p0	gamma_cid14_p0	gamma_cid14_p1	gamma_cid14_p2	gamma_cid14_p3	gamma_cid14_p4	gamma_cid14_p5
0.5	-0.1135812873875904	0.03458794022985771	0.821313385483835	0.8231259098236482	-0.2168409090326888	-0.1453784239870788	-0.6403168236568141	0.9056236902536998	0.9056236902536982	-0.06214010673892843	0.1745323477868894	0.2900526178039144	0.146487699016051	-0.3070238952808597	-0.1882380304429796	-0.4431491756505992	1.683923825157432	-0.02617370592840494	0.1613148506473653	-0.7383174457651797	1.803319831654585	1.80331983165462	-0.4215407356463883	2.14240659993752e-05	0.5275104861362211	0.1735989828608056	-0.18158379814723	0.00334715429353239	0.01620902289415883	-0.2827778316239847	-0.004387607143013811	0.00435632348708655	0.2302186611197403	-11.18988404477155	-43.71093731265783	-4.006512712983278	-0.9439559728497166	-2.817737919591248	-643.1311537076137	67.03159440107213	0.2534059706631924	0.5188831152981521	-0.3723203359420646	-1.161203444479385	-0.1921710919188381	-0.6002056841110776	1.685645061013088	-1.252156354792611	-1.252156354792607	0.3620008030423565	0.001961686874098994	-0.4809354390312912	-0.3103305275629272	-9.600814927690719e-08	-1.236948807498276e-07	1.659740295050681e-07	-1.355660857338533e-06	4.349976650241834e-08	-1.752345367999818e-07	2.525437553378815e-07
0.51	-0.1166382039446112	0.03273164021530253	0.8168642441303555	0.8399046379563044	-0.2171129103754839	-0.1437934356783917	-0.6476150057447857	0.9235920418414081	0.9235920418414207	-0.06633431921917071	0.1745326605647009	0.2953026227366993	0.1482065762391977	-0.304304039862836	-0.1830098887247116	-0.4465827361039243	1.671599533686826	-0.02821935317627665	0.1557288079561966	-0.7212356228323556	1.790118365302347	1.790118365302351	-0.4172331844022458	2.517958368104893e-05	0.5224108569644935	0.170139527837872	-0.1875687779757137	0.004925951488792299	0.01649828862919432	-0.286793005296036	-0.005956299003027861	0.00448850885773869	0.2358161045397763	-10.25245627358838	-44.5044429862451	-4.268808323341541	-0.6956598369967791	-2.56565451673523	-647.386353381776	66.85853413587938	0.2895660839037654	0.5266015738554327	-0.3144553545514903	-1.301401575149821	-0.20988083556113	-0.5311021573541371	1.73195325898886	-1.388939674769029	-1.388939674773623	0.4754263430279808	-0.003080556157382885	-0.5364343000916815	-0.3694367170746692	-9.245623392445441e-08	-8.165388777459687e-08	4.703305830010139e-07	-1.007270591524323e-06	-1.077671546990135e-08	-1.516421789512809e-07	4.241249009023915e-07
0.52	-0.1196662637961465	0.03092798599268286	0.8123836508814382	0.8565534512588883	-0.217405192049626	-0.14226296751576	-0.6547398691335165	0.9414214191857391	0.9414214191857425	-0.07048339737538779	0.1745324782896408	0.300499239848997	0.1498897221666317	-0.3012525541835406	-0.1777088720558802	-0.4494395547382019	1.657940859144269	-0.03022977219774612	0.1504108214356554	-0.7036537059166572	1.77552498297692	1.775524982976894	-0.4125138708409958	-7.758651353991037e-05	0.5168329220388379	0.1664527237182949	-0.1935537578042372	0.006504748684066268	0.01678755436409169	-0.2908081789681106	-0.00752499086303705	0.004620694228413722	0.2414135479597759	-9.319704480065633	-45.29984963440888	-4.528424912939342	-0.4512312489610488	-2.334732148502617	-651.6647667541424	66.74580030821414	0.3197320229175669	0.5334581054107943	-0.2569719721325535	-1.428080058869699	-0.1851254466384119	-0.5465944499855896	1.785663857587974	-1.530539549430568	-1.530539549430579	0.4443532664638501	-0.01934263610640301	-0.5765965898169334	-0.3558003468916533	-7.5310212638623e-08	1.680638520736104e-08	1.091686961096712e-06	-1.621522462583325e-07	-1.266238089944737e-07	-1.014624717901315e-07	7.82174806368263e-07
0.53	-0.1226622957550001	0.02917771348400858	0.8078774276448867	0.8730591014040373	-0.2177170517283003	-0.1407873573878481	-0.6616865392126891	0.9590975459524813	0.9590975459524745	-0.07458607904614534	0.1745322785982562	0.3056378603900819	0.1515355021323196	-0.2979095589896975	-0.1723312379026801	-0.4517037930748403	1.64296908143542	-0.03213870886751422	0.1447667350855106	-0.6856108978868312	1.759472402707635	1.759472402707627	-0.4079396365571318	2.132753751653857e-05	0.5108223356744431	0.1626632958832175	-0.1990646116240893	0.006574871440571417	0.01716216701351388	-0.2956544790680967	-0.008344913990021983	0.005396117276671077	0.246678279535372	-8.410211152799814	-45.80240129106721	-4.394048103028593	-0.3419871920279279	-2.360126013847763	-656.0533140187579	67.60827383910451	0.3482337985735536	0.5420373420825728	-0.1959698609365936	-1.564729790896352	-0.1931374334185091	-0.56506441512981	1.824001080381102	-1.676799154294135	-1.676799154291402	0.4765736787927037	0.0221568359440479	-0.6236607974496929	-0.3962543593982931	-6.170857333127788e-08	7.249242353077456e-08	1.394643062411541e-06	3.1461083355555e-07	-1.868352389168759e-07	-7.093614921816013e-08	9.623230150776778e-07
0.54	-0.1256235676557253	0.0274816415712279	0.8033515980056675	0.8894084331392902	-0.2180478727049255	-0.1393665378609646	-0.6684506988506246	0.9766063105387991	0.9766063105388066	-0.07864049534017251	0.1745325977293812	0.3107143008399837	0.1531422397481401	-0.2943005425576165	-0.1668687528771631	-0.4533608352717641	1.626677177166417	-0.03402203178817251	0.1394527012313265	-0.6671516176689557	1.742052546893682	1.742052546893692	-0.4028607954954624	2.617799786680887e-05	0.5043969038020898	0.1586442537448388	-0.2045754654439831	0.006644994197047465	0.01753677966307142	-0.3005007791680696	-0.009164837117011349	0.006171540324879048	0.2519430111109319	-7.551064555489472	-46.30341837162059	-4.250818943353514	-0.2439577342728074	-2.412554101562729	-660.4469913077771	68.50062282182611	0.3729362705651679	0.5504282798741593	-0.1355327441896076	-1.692105370900551	-0.1800026968164217	-0.480583950793437	1.868958295197873	-1.803994658364365	-1.803994658364389	0.5452746220249277	-0.03815535424766255	-0.659565691408682	-0.4017232075518755	-5.202837791502404e-08	8.085377670005333e-08	1.345326517075193e-06	3.838319175500739e-07	-1.854923176198551e-07	-6.215399682996047e-08	9.456438146097338e-07
